<?xml version="1.0" encoding="UTF-8"?>
<svg width="24px" height="26px" viewBox="0 0 24 26" version="1.1" xmlns="http://www.w3.org/2000/svg" xmlns:xlink="http://www.w3.org/1999/xlink">
    <!-- Generator: Sketch 47.1 (45422) - http://www.bohemiancoding.com/sketch -->
    <title>team</title>
    <desc>Created with Sketch.</desc>
    <defs>
        <rect id="path-1" x="0" y="0" width="256" height="800"></rect>
        <filter x="-14.3%" y="-2.8%" width="128.5%" height="109.2%" filterUnits="objectBoundingBox" id="filter-2">
            <feOffset dx="0" dy="5.5" in="SourceAlpha" result="shadowOffsetOuter1"></feOffset>
            <feGaussianBlur stdDeviation="2.5" in="shadowOffsetOuter1" result="shadowBlurOuter1"></feGaussianBlur>
            <feColorMatrix values="0 0 0 0 0   0 0 0 0 0   0 0 0 0 0  0 0 0 0.24 0" type="matrix" in="shadowBlurOuter1" result="shadowMatrixOuter1"></feColorMatrix>
            <feOffset dx="0" dy="9" in="SourceAlpha" result="shadowOffsetOuter2"></feOffset>
            <feGaussianBlur stdDeviation="9" in="shadowOffsetOuter2" result="shadowBlurOuter2"></feGaussianBlur>
            <feColorMatrix values="0 0 0 0 0   0 0 0 0 0   0 0 0 0 0  0 0 0 0.18 0" type="matrix" in="shadowBlurOuter2" result="shadowMatrixOuter2"></feColorMatrix>
            <feMerge>
                <feMergeNode in="shadowMatrixOuter1"></feMergeNode>
                <feMergeNode in="shadowMatrixOuter2"></feMergeNode>
            </feMerge>
        </filter>
    </defs>
    <g id="wireframe" stroke="none" stroke-width="1" fill="none" fill-rule="evenodd">
        <g id="cat-paw-copy" transform="translate(-88.000000, -64.000000)">
            <g id="navbar/new" transform="translate(58.000000, 0.000000)">
                <g id="Group-9">
                    <g id="drawer-bg">
                        <use fill="black" fill-opacity="1" filter="url(#filter-2)" xlink:href="#path-1"></use>
                        <use fill="#303030" fill-rule="evenodd" xlink:href="#path-1"></use>
                    </g>
                </g>
                <g id="team" transform="translate(30.000000, 64.000000)" fill="#FFFFFF">
                    <path d="M3.34999847,19 C2.52124847,19 1.84999847,19.67125 1.84999847,20.5 C1.84999847,21.32875 2.52124847,22 3.34999847,22 C4.17874847,22 4.84999847,21.32875 4.84999847,20.5 C4.84999847,19.67125 4.17874847,19 3.34999847,19 L3.34999847,19 Z M3.34999847,22.375 C2.34874847,22.375 0.349998474,22.8775 0.349998474,23.875 L0.349998474,25 L6.34999847,25 L6.34999847,23.875 C6.34999847,22.8775 4.35124847,22.375 3.34999847,22.375 L3.34999847,22.375 Z" id="Shape"></path>
                    <path d="M21,19 C20.17125,19 19.5,19.67125 19.5,20.5 C19.5,21.32875 20.17125,22 21,22 C21.82875,22 22.5,21.32875 22.5,20.5 C22.5,19.67125 21.82875,19 21,19 L21,19 Z M21,22.375 C19.99875,22.375 18,22.8775 18,23.875 L18,25 L24,25 L24,23.875 C24,22.8775 22.00125,22.375 21,22.375 L21,22.375 Z" id="Shape"></path>
                    <path d="M11,1.5 C11,2.32875 11.67125,3 12.5,3 C13.32875,3 14,2.32875 14,1.5 C14,0.67125 13.32875,0 12.5,0 C11.67125,0 11,0.67125 11,1.5 Z M9.5,4.875 L9.5,6 L15.5,6 L15.5,4.875 C15.5,3.8775 13.50125,3.375 12.5,3.375 C11.49875,3.375 9.5,3.8775 9.5,4.875 Z" id="Shape"></path>
                    <path d="M13.25,10.0438567 C6.55,9.70885668 13.62,11.3688567 13.62,12.4438567 C13.62,13.4738567 12.945,14.3088567 11.915,14.3088567 C10.88,14.3088567 10.1,13.4738567 10.1,12.4438567 L10.115,12.2638567 C9.105,13.4638567 8.5,15.0188567 8.5,16.7088567 C8.5,18.9188567 10.29,20.7088567 12.5,20.7088567 C14.71,20.7088567 16.5,18.9188567 16.5,16.7088567 C16.5,14.0138567 15.205,11.6088567 13.25,10.0438567 L13.25,10.0438567 Z M12.355,19.2088567 C11.465,19.2088567 10.745,18.5088567 10.745,17.6388567 C10.745,16.8288567 11.27,16.2588567 12.15,16.0788567 C13.035,15.8988567 13.95,15.4738567 14.46,14.7888567 C14.655,15.4338567 14.755,16.1138567 14.755,16.8088567 C14.755,18.1338567 13.68,19.2088567 12.355,19.2088567 L12.355,19.2088567 Z" id="Shape"></path>
                    <g id="Group" transform="translate(1.000000, 4.000000)" fill-rule="nonzero">
                        <path d="M21.85,10.475 C21.875,11.6 21.7,12.7 21.4,13.725 L22.2,14.5 C22.675,13.225 22.9,11.875 22.875,10.45 C22.8,5.7 19.775,1.7 15.575,0.125 L15.6,1.225 C19.225,2.775 21.775,6.325 21.85,10.475 Z" id="Shape"></path>
                        <path d="M1.175,10.475 C1.15,11.6 1.325,12.7 1.625,13.725 L0.825,14.5 C0.35,13.225 0.125,11.875 0.15,10.45 C0.225,5.7 3.25,1.7 7.45,0.125 L7.425,1.225 C3.8,2.775 1.25,6.325 1.175,10.475 Z" id="Shape"></path>
                        <path d="M15.575,19.975 C14.35,20.5 13,20.8 11.575,20.8 C10.275,20.8 9,20.55 7.85,20.1 L7.075,20.875 C8.45,21.475 9.975,21.825 11.55,21.825 C13.25,21.825 14.875,21.45 16.3,20.75 L15.575,19.975 Z" id="Shape"></path>
                    </g>
                </g>
            </g>
        </g>
    </g>
</svg>