<?xml version="1.0" encoding="UTF-8"?>
<svg width="208px" height="41px" viewBox="0 0 208 41" version="1.1" xmlns="http://www.w3.org/2000/svg" xmlns:xlink="http://www.w3.org/1999/xlink">
    <!-- Generator: Sketch 47 (45396) - http://www.bohemiancoding.com/sketch -->
    <title>ludere/light</title>
    <desc>Created with Sketch.</desc>
    <defs>
        <linearGradient x1="99.7964845%" y1="50.0459154%" x2="-93.2569796%" y2="50.0459154%" id="linearGradient-1">
            <stop stop-color="#6FE5C9" offset="0%"></stop>
            <stop stop-color="#00BCD4" offset="100%"></stop>
        </linearGradient>
        <linearGradient x1="100%" y1="50%" x2="0%" y2="50%" id="linearGradient-2">
            <stop stop-color="#6FE5C9" offset="0%"></stop>
            <stop stop-color="#00BCD4" offset="100%"></stop>
        </linearGradient>
    </defs>
    <g id="branding/style" stroke="none" stroke-width="1" fill="none" fill-rule="evenodd">
        <g id="css-light" transform="translate(-292.000000, -896.000000)">
            <g id="ludere/light" transform="translate(292.000000, 896.000000)">
                <g id="Group-2">
                    <path d="M71,2 L76.76,2 L76.76,38.288 L71,38.288 L71,2 Z M104.792,38.288 L99.32,38.288 L99.32,34.592 L99.224,34.592 C98.7119974,35.7440058 97.8240063,36.7599956 96.56,37.64 C95.2959937,38.5200044 93.8000086,38.96 92.072,38.96 C90.5679925,38.96 89.2800054,38.6960026 88.208,38.168 C87.1359946,37.6399974 86.2560034,36.9440043 85.568,36.08 C84.8799966,35.2159957 84.3760016,34.2240056 84.056,33.104 C83.7359984,31.9839944 83.576,30.8320059 83.576,29.648 L83.576,15.248 L89.336,15.248 L89.336,28.016 C89.336,28.6880034 89.3839995,29.3919963 89.48,30.128 C89.5760005,30.8640037 89.7839984,31.527997 90.104,32.12 C90.4240016,32.712003 90.8639972,33.1999981 91.424,33.584 C91.9840028,33.9680019 92.7279954,34.16 93.656,34.16 C94.5520045,34.16 95.3439966,33.9760018 96.032,33.608 C96.7200034,33.2399982 97.2799978,32.7680029 97.712,32.192 C98.1440022,31.6159971 98.4719989,30.9520038 98.696,30.2 C98.9200011,29.4479962 99.032,28.6880038 99.032,27.92 L99.032,15.248 L104.792,15.248 L104.792,38.288 Z" id="lu" fill="url(#linearGradient-1)"></path>
                    <path d="M131.112,34.496 C130.151995,35.9360072 128.904008,37.0239963 127.368,37.76 C125.831992,38.4960037 124.248008,38.864 122.616,38.864 C120.855991,38.864 119.264007,38.560003 117.84,37.952 C116.415993,37.343997 115.200005,36.5120053 114.192,35.456 C113.183995,34.3999947 112.400003,33.1520072 111.84,31.712 C111.279997,30.2719928 111,28.7200083 111,27.056 C111,25.3919917 111.279997,23.8400072 111.84,22.4 C112.400003,20.9599928 113.183995,19.7120053 114.192,18.656 C115.200005,17.5999947 116.415993,16.768003 117.84,16.16 C119.264007,15.551997 120.855991,15.248 122.616,15.248 C124.248008,15.248 125.831992,15.6239962 127.368,16.376 C128.904008,17.1280038 130.151995,18.2399926 131.112,19.712 L131.208,19.712 L131.208,2 L134.472,2 L134.472,38.288 L131.208,38.288 L131.208,34.496 L131.112,34.496 Z M114.456,27.056 C114.456,28.3040062 114.647998,29.4799945 115.032,30.584 C115.416002,31.6880055 115.967996,32.6479959 116.688,33.464 C117.408004,34.2800041 118.295995,34.9199977 119.352,35.384 C120.408005,35.8480023 121.607993,36.08 122.952,36.08 C124.200006,36.08 125.351995,35.8480023 126.408,35.384 C127.464005,34.9199977 128.375996,34.288004 129.144,33.488 C129.912004,32.687996 130.511998,31.7360055 130.944,30.632 C131.376002,29.5279945 131.592,28.3360064 131.592,27.056 C131.592,25.7759936 131.376002,24.5840055 130.944,23.48 C130.511998,22.3759945 129.912004,21.4160041 129.144,20.6 C128.375996,19.7839959 127.464005,19.1440023 126.408,18.68 C125.351995,18.2159977 124.200006,17.984 122.952,17.984 C121.607993,17.984 120.408005,18.2239976 119.352,18.704 C118.295995,19.1840024 117.408004,19.8319959 116.688,20.648 C115.967996,21.4640041 115.416002,22.4239945 115.032,23.528 C114.647998,24.6320055 114.456,25.8079938 114.456,27.056 Z M160.344,25.328 C160.248,23.2159894 159.568006,21.464007 158.304,20.072 C157.039994,18.679993 155.240012,17.984 152.904,17.984 C151.815995,17.984 150.808005,18.183998 149.88,18.584 C148.951995,18.984002 148.136004,19.5279966 147.432,20.216 C146.727996,20.9040034 146.168002,21.6879956 145.752,22.568 C145.335998,23.4480044 145.096,24.3679952 145.032,25.328 L160.344,25.328 Z M163.656,26.384 L163.656,27.104 C163.656,27.3600013 163.64,27.6319986 163.608,27.92 L144.984,27.92 C145.016,29.0400056 145.239998,30.095995 145.656,31.088 C146.072002,32.080005 146.647996,32.9439963 147.384,33.68 C148.120004,34.4160037 148.983995,34.9999978 149.976,35.432 C150.968005,35.8640022 152.039994,36.08 153.192,36.08 C154.888008,36.08 156.351994,35.6880039 157.584,34.904 C158.816006,34.1199961 159.751997,33.2160051 160.392,32.192 L162.84,34.112 C161.495993,35.8080085 160.016008,37.0239963 158.4,37.76 C156.783992,38.4960037 155.048009,38.864 153.192,38.864 C151.527992,38.864 149.984007,38.568003 148.56,37.976 C147.135993,37.383997 145.912005,36.5600053 144.888,35.504 C143.863995,34.4479947 143.056003,33.2000072 142.464,31.76 C141.871997,30.3199928 141.576,28.7520085 141.576,27.056 C141.576,25.3599915 141.863997,23.7920072 142.44,22.352 C143.016003,20.9119928 143.815995,19.6640053 144.84,18.608 C145.864005,17.5519947 147.063993,16.728003 148.44,16.136 C149.816007,15.543997 151.303992,15.248 152.904,15.248 C154.664009,15.248 156.215993,15.543997 157.56,16.136 C158.904007,16.728003 160.023996,17.527995 160.92,18.536 C161.816004,19.544005 162.495998,20.7199933 162.96,22.064 C163.424002,23.4080067 163.656,24.8479923 163.656,26.384 Z M170.664,20.768 C170.664,20.159997 170.648,19.3760048 170.616,18.416 C170.584,17.4559952 170.536,16.5920038 170.472,15.824 L173.592,15.824 C173.656,16.432003 173.704,17.1039963 173.736,17.84 C173.768,18.5760037 173.784,19.1839976 173.784,19.664 L173.88,19.664 C174.520003,18.3519934 175.479994,17.2880041 176.76,16.472 C178.040006,15.6559959 179.479992,15.248 181.08,15.248 C181.496002,15.248 181.871998,15.2639998 182.208,15.296 C182.544002,15.3280002 182.887998,15.3919995 183.24,15.488 L182.808,18.56 C182.615999,18.4959997 182.296002,18.4320003 181.848,18.368 C181.399998,18.3039997 180.952002,18.272 180.504,18.272 C179.639996,18.272 178.808004,18.4319984 178.008,18.752 C177.207996,19.0720016 176.512003,19.5759966 175.92,20.264 C175.327997,20.9520034 174.848002,21.8319946 174.48,22.904 C174.111998,23.9760054 173.928,25.2639925 173.928,26.768 L173.928,38.288 L170.664,38.288 L170.664,20.768 Z M204.216,25.328 C204.12,23.2159894 203.440006,21.464007 202.176,20.072 C200.911994,18.679993 199.112012,17.984 196.776,17.984 C195.687995,17.984 194.680005,18.183998 193.752,18.584 C192.823995,18.984002 192.008004,19.5279966 191.304,20.216 C190.599996,20.9040034 190.040002,21.6879956 189.624,22.568 C189.207998,23.4480044 188.968,24.3679952 188.904,25.328 L204.216,25.328 Z M207.528,26.384 L207.528,27.104 C207.528,27.3600013 207.512,27.6319986 207.48,27.92 L188.856,27.92 C188.888,29.0400056 189.111998,30.095995 189.528,31.088 C189.944002,32.080005 190.519996,32.9439963 191.256,33.68 C191.992004,34.4160037 192.855995,34.9999978 193.848,35.432 C194.840005,35.8640022 195.911994,36.08 197.064,36.08 C198.760008,36.08 200.223994,35.6880039 201.456,34.904 C202.688006,34.1199961 203.623997,33.2160051 204.264,32.192 L206.712,34.112 C205.367993,35.8080085 203.888008,37.0239963 202.272,37.76 C200.655992,38.4960037 198.920009,38.864 197.064,38.864 C195.399992,38.864 193.856007,38.568003 192.432,37.976 C191.007993,37.383997 189.784005,36.5600053 188.76,35.504 C187.735995,34.4479947 186.928003,33.2000072 186.336,31.76 C185.743997,30.3199928 185.448,28.7520085 185.448,27.056 C185.448,25.3599915 185.735997,23.7920072 186.312,22.352 C186.888003,20.9119928 187.687995,19.6640053 188.712,18.608 C189.736005,17.5519947 190.935993,16.728003 192.312,16.136 C193.688007,15.543997 195.175992,15.248 196.776,15.248 C198.536009,15.248 200.087993,15.543997 201.432,16.136 C202.776007,16.728003 203.895996,17.527995 204.792,18.536 C205.688004,19.544005 206.367998,20.7199933 206.832,22.064 C207.296002,23.4080067 207.528,24.8479923 207.528,26.384 Z" id="dere" fill="#303030"></path>
                    <g id="Group">
                        <polyline id="Path-3" stroke="#00BCD4" points="51.7620954 33 51.7620954 10.3548387 31.0312743 28.4615539 4.00589945 5"></polyline>
                        <rect id="Rectangle" fill="url(#linearGradient-2)" x="47" y="31" width="10" height="10" rx="2"></rect>
                        <rect id="Rectangle-Copy" fill="url(#linearGradient-2)" x="47" y="5" width="10" height="10" rx="2"></rect>
                        <rect id="Rectangle-Copy-2" fill="url(#linearGradient-2)" x="26" y="24" width="10" height="10" rx="2"></rect>
                        <rect id="Rectangle-Copy-3" fill="url(#linearGradient-2)" x="0" y="0" width="10" height="10" rx="2"></rect>
                    </g>
                </g>
            </g>
        </g>
    </g>
</svg>