<?xml version="1.0" encoding="UTF-8"?>
<svg width="24px" height="26px" viewBox="0 0 24 26" version="1.1" xmlns="http://www.w3.org/2000/svg" xmlns:xlink="http://www.w3.org/1999/xlink">
    <!-- Generator: Sketch 48.2 (47327) - http://www.bohemiancoding.com/sketch -->
    <title>team</title>
    <desc>Created with Sketch.</desc>
    <defs></defs>
    <g id="Desktop" stroke="none" stroke-width="1" fill="none" fill-rule="evenodd" transform="translate(-88.000000, -64.000000)">
        <g id="navbar/new" transform="translate(58.000000, 0.000000)" fill="#FFFFFF">
            <g id="team" transform="translate(30.000000, 64.000000)">
                <path d="M3.34999847,19 C2.52124847,19 1.84999847,19.67125 1.84999847,20.5 C1.84999847,21.32875 2.52124847,22 3.34999847,22 C4.17874847,22 4.84999847,21.32875 4.84999847,20.5 C4.84999847,19.67125 4.17874847,19 3.34999847,19 L3.34999847,19 Z M3.34999847,22.375 C2.34874847,22.375 0.349998474,22.8775 0.349998474,23.875 L0.349998474,25 L6.34999847,25 L6.34999847,23.875 C6.34999847,22.8775 4.35124847,22.375 3.34999847,22.375 L3.34999847,22.375 Z" id="Shape"></path>
                <path d="M21,19 C20.17125,19 19.5,19.67125 19.5,20.5 C19.5,21.32875 20.17125,22 21,22 C21.82875,22 22.5,21.32875 22.5,20.5 C22.5,19.67125 21.82875,19 21,19 L21,19 Z M21,22.375 C19.99875,22.375 18,22.8775 18,23.875 L18,25 L24,25 L24,23.875 C24,22.8775 22.00125,22.375 21,22.375 L21,22.375 Z" id="Shape"></path>
                <path d="M11,1.5 C11,2.32875 11.67125,3 12.5,3 C13.32875,3 14,2.32875 14,1.5 C14,0.67125 13.32875,0 12.5,0 C11.67125,0 11,0.67125 11,1.5 Z M9.5,4.875 L9.5,6 L15.5,6 L15.5,4.875 C15.5,3.8775 13.50125,3.375 12.5,3.375 C11.49875,3.375 9.5,3.8775 9.5,4.875 Z" id="Shape"></path>
                <path d="M13.25,10.0438567 C6.55,9.70885668 13.62,11.3688567 13.62,12.4438567 C13.62,13.4738567 12.945,14.3088567 11.915,14.3088567 C10.88,14.3088567 10.1,13.4738567 10.1,12.4438567 L10.115,12.2638567 C9.105,13.4638567 8.5,15.0188567 8.5,16.7088567 C8.5,18.9188567 10.29,20.7088567 12.5,20.7088567 C14.71,20.7088567 16.5,18.9188567 16.5,16.7088567 C16.5,14.0138567 15.205,11.6088567 13.25,10.0438567 L13.25,10.0438567 Z M12.355,19.2088567 C11.465,19.2088567 10.745,18.5088567 10.745,17.6388567 C10.745,16.8288567 11.27,16.2588567 12.15,16.0788567 C13.035,15.8988567 13.95,15.4738567 14.46,14.7888567 C14.655,15.4338567 14.755,16.1138567 14.755,16.8088567 C14.755,18.1338567 13.68,19.2088567 12.355,19.2088567 L12.355,19.2088567 Z" id="Shape"></path>
                <path d="M22.85,14.475 C22.875,15.6 22.7,16.7 22.4,17.725 L23.2,18.5 C23.675,17.225 23.9,15.875 23.875,14.45 C23.8,9.7 20.775,5.7 16.575,4.125 L16.6,5.225 C20.225,6.775 22.775,10.325 22.85,14.475 Z" id="Shape" fill-rule="nonzero"></path>
                <path d="M2.175,14.475 C2.15,15.6 2.325,16.7 2.625,17.725 L1.825,18.5 C1.35,17.225 1.125,15.875 1.15,14.45 C1.225,9.7 4.25,5.7 8.45,4.125 L8.425,5.225 C4.8,6.775 2.25,10.325 2.175,14.475 Z" id="Shape" fill-rule="nonzero"></path>
                <path d="M16.575,23.975 C15.35,24.5 14,24.8 12.575,24.8 C11.275,24.8 10,24.55 8.85,24.1 L8.075,24.875 C9.45,25.475 10.975,25.825 12.55,25.825 C14.25,25.825 15.875,25.45 17.3,24.75 L16.575,23.975 Z" id="Shape" fill-rule="nonzero"></path>
            </g>
        </g>
    </g>
</svg>